<svg xmlns="http://www.w3.org/2000/svg" version="1.1" width="800" height="800"><path stroke="black" stroke-width="3" fill="none" d="M 700 700 L 700 680 L 700 660 L 693 641 L 690 621 L 690 601 M 700 660 L 703 640 L 703 620 L 700 600 M 700 660 L 700 640 L 700 620 L 693 601 L 690 581 L 690 561 M 700 620 L 703 600 L 703 580 L 700 560 M 700 620 L 693 601 L 686 582 L 673 567 L 663 550 L 656 531 M 686 582 L 683 562 L 676 543 L 666 526 M 686 582 L 683 562 L 680 542 L 670 525 L 663 506 L 660 486 M 680 542 L 680 522 L 677 502 L 670 483 M 680 542 L 680 522 L 680 502 L 673 483 L 670 463 L 670 443 M 680 502 L 683 482 L 683 462 L 680 442 M 680 502 M 700 620 L 703 600 L 706 580 L 703 560 L 703 540 L 706 520 M 706 580 L 713 561 L 716 541 L 716 521 M 706 580 L 706 560 L 706 540 L 699 521 L 696 501 L 696 481 M 706 540 L 709 520 L 709 500 L 706 480 M 706 540 L 703 520 L 700 500 L 690 483 L 683 464 L 680 444 M 700 500 L 700 480 L 697 460 L 690 441 M 700 500 M 700 620 L 700 600 L 700 580 L 693 561 L 690 541 L 690 521 M 700 580 L 703 560 L 703 540 L 700 520 M 700 580 L 700 560 L 700 540 L 693 521 L 690 501 L 690 481 M 700 540 L 703 520 L 703 500 L 700 480 M 700 540 L 693 521 L 686 502 L 673 487 L 663 470 L 656 451 M 686 502 L 683 482 L 676 463 L 666 446 M 686 502 L 683 482 L 680 462 L 670 445 L 663 426 L 660 406 M 680 462 L 680 442 L 677 422 L 670 403 M 680 462 L 680 442 L 680 422 L 673 403 L 670 383 L 670 363 M 680 422 L 683 402 L 683 382 L 680 362 M 680 422 M 700 540 L 703 520 L 706 500 L 703 480 L 703 460 L 706 440 M 706 500 L 713 481 L 716 461 L 716 441 M 706 500 L 706 480 L 706 460 L 699 441 L 696 421 L 696 401 M 706 460 L 709 440 L 709 420 L 706 400 M 706 460 L 703 440 L 700 420 L 690 403 L 683 384 L 680 364 M 700 420 L 700 400 L 697 380 L 690 361 M 700 420 M 700 540 L 693 521 L 686 502 L 673 487 L 663 470 L 656 451 M 686 502 L 683 482 L 676 463 L 666 446 M 686 502 L 679 483 L 672 464 L 659 449 L 649 432 L 642 413 M 672 464 L 669 444 L 662 425 L 652 408 M 672 464 L 659 449 L 646 434 L 629 424 L 614 411 L 601 396 M 646 434 L 636 417 L 623 402 L 608 389 M 646 434 L 636 417 L 626 400 L 611 387 L 598 372 L 588 355 M 626 400 L 619 381 L 609 364 L 596 349 M 626 400 L 619 381 L 612 362 L 599 347 L 589 330 L 582 311 M 612 362 L 609 342 L 602 323 L 592 306 M 612 362 M 672 464 L 669 444 L 666 424 L 656 407 L 649 388 L 646 368 M 666 424 L 666 404 L 663 384 L 656 365 M 666 424 L 659 405 L 652 386 L 639 371 L 629 354 L 622 335 M 652 386 L 649 366 L 642 347 L 632 330 M 652 386 L 642 369 L 632 352 L 617 339 L 604 324 L 594 307 M 632 352 L 625 333 L 615 316 L 602 301 M 632 352 M 672 464 L 669 444 L 666 424 L 656 407 L 649 388 L 646 368 M 666 424 L 666 404 L 663 384 L 656 365 M 666 424 L 663 404 L 660 384 L 650 367 L 643 348 L 640 328 M 660 384 L 660 364 L 657 344 L 650 325 M 660 384 L 650 367 L 640 350 L 625 337 L 612 322 L 602 305 M 640 350 L 633 331 L 623 314 L 610 299 M 640 350 L 633 331 L 626 312 L 613 297 L 603 280 L 596 261 M 626 312 L 623 292 L 616 273 L 606 256 M 626 312 L 623 292 L 620 272 L 610 255 L 603 236 L 600 216 M 620 272 L 620 252 L 617 232 L 610 213 M 620 272 M 660 384 L 660 364 L 660 344 L 653 325 L 650 305 L 650 285 M 660 344 L 663 324 L 663 304 L 660 284 M 660 344 L 657 324 L 654 304 L 644 287 L 637 268 L 634 248 M 654 304 L 654 284 L 651 264 L 644 245 M 654 304 L 647 285 L 640 266 L 627 251 L 617 234 L 610 215 M 640 266 L 637 246 L 630 227 L 620 210 M 640 266 M 660 384 L 660 364 L 660 344 L 653 325 L 650 305 L 650 285 M 660 344 L 663 324 L 663 304 L 660 284 M 660 344 L 660 324 L 660 304 L 653 285 L 650 265 L 650 245 M 660 304 L 663 284 L 663 264 L 660 244 M 660 304 L 653 285 L 646 266 L 633 251 L 623 234 L 616 215 M 646 266 L 643 246 L 636 227 L 626 210 M 646 266 L 643 246 L 640 226 L 630 209 L 623 190 L 620 170 M 640 226 L 640 206 L 637 186 L 630 167 M 640 226 L 640 206 L 640 186 L 633 167 L 630 147 L 630 127 M 640 186 L 643 166 L 643 146 L 640 126 M 640 186 M 660 304 L 663 284 L 666 264 L 663 244 L 663 224 L 666 204 M 666 264 L 673 245 L 676 225 L 676 205 M 666 264 L 666 244 L 666 224 L 659 205 L 656 185 L 656 165 M 666 224 L 669 204 L 669 184 L 666 164 M 666 224 L 663 204 L 660 184 L 650 167 L 643 148 L 640 128 M 660 184 L 660 164 L 657 144 L 650 125 M 660 184 M 660 304 M 700 540 L 703 520 L 706 500 L 703 480 L 703 460 L 706 440 M 706 500 L 713 481 L 716 461 L 716 441 M 706 500 L 709 480 L 712 460 L 709 440 L 709 420 L 712 400 M 712 460 L 719 441 L 722 421 L 722 401 M 712 460 L 709 440 L 706 420 L 696 403 L 689 384 L 686 364 M 706 420 L 706 400 L 703 380 L 696 361 M 706 420 L 706 400 L 706 380 L 699 361 L 696 341 L 696 321 M 706 380 L 709 360 L 709 340 L 706 320 M 706 380 L 709 360 L 712 340 L 709 320 L 709 300 L 712 280 M 712 340 L 719 321 L 722 301 L 722 281 M 712 340 M 712 460 L 719 441 L 726 422 L 726 402 L 729 382 L 736 363 M 726 422 L 736 405 L 743 386 L 746 366 M 726 422 L 729 402 L 732 382 L 729 362 L 729 342 L 732 322 M 732 382 L 739 363 L 742 343 L 742 323 M 732 382 L 732 362 L 732 342 L 725 323 L 722 303 L 722 283 M 732 342 L 735 322 L 735 302 L 732 282 M 732 342 M 712 460 L 712 440 L 712 420 L 705 401 L 702 381 L 702 361 M 712 420 L 715 400 L 715 380 L 712 360 M 712 420 L 712 400 L 712 380 L 705 361 L 702 341 L 702 321 M 712 380 L 715 360 L 715 340 L 712 320 M 712 380 L 705 361 L 698 342 L 685 327 L 675 310 L 668 291 M 698 342 L 695 322 L 688 303 L 678 286 M 698 342 L 695 322 L 692 302 L 682 285 L 675 266 L 672 246 M 692 302 L 692 282 L 689 262 L 682 243 M 692 302 L 692 282 L 692 262 L 685 243 L 682 223 L 682 203 M 692 262 L 695 242 L 695 222 L 692 202 M 692 262 M 712 380 L 715 360 L 718 340 L 715 320 L 715 300 L 718 280 M 718 340 L 725 321 L 728 301 L 728 281 M 718 340 L 718 320 L 718 300 L 711 281 L 708 261 L 708 241 M 718 300 L 721 280 L 721 260 L 718 240 M 718 300 L 715 280 L 712 260 L 702 243 L 695 224 L 692 204 M 712 260 L 712 240 L 709 220 L 702 201 M 712 260 M 712 380 L 709 360 L 706 340 L 696 323 L 689 304 L 686 284 M 706 340 L 706 320 L 703 300 L 696 281 M 706 340 L 703 320 L 700 300 L 690 283 L 683 264 L 680 244 M 700 300 L 700 280 L 697 260 L 690 241 M 700 300 L 690 283 L 680 266 L 665 253 L 652 238 L 642 221 M 680 266 L 673 247 L 663 230 L 650 215 M 680 266 L 673 247 L 666 228 L 653 213 L 643 196 L 636 177 M 666 228 L 663 208 L 656 189 L 646 172 M 666 228 L 663 208 L 660 188 L 650 171 L 643 152 L 640 132 M 660 188 L 660 168 L 657 148 L 650 129 M 660 188 M 700 300 L 700 280 L 700 260 L 693 241 L 690 221 L 690 201 M 700 260 L 703 240 L 703 220 L 700 200 M 700 260 L 697 240 L 694 220 L 684 203 L 677 184 L 674 164 M 694 220 L 694 200 L 691 180 L 684 161 M 694 220 L 687 201 L 680 182 L 667 167 L 657 150 L 650 131 M 680 182 L 677 162 L 670 143 L 660 126 M 680 182 M 700 300 M 700 540"/></svg>